<?xml version="1.0" encoding="utf-8"?><!DOCTYPE svg PUBLIC "-//W3C//DTD SVG 1.1//EN" "http://www.w3.org/Graphics/SVG/1.1/DTD/svg11.dtd"><svg xmlns="http://www.w3.org/2000/svg" xmlns:xlink="http://www.w3.org/1999/xlink"><symbol preserveAspectRatio="xMidYMid" viewBox="0 0 34 21" id="svg-login-arrow-bot" xmlns="http://www.w3.org/2000/svg"><defs><style>.acls-1{fill:#fff;fill-rule:evenodd}</style></defs><path d="M34 3.973L30.033 0 17 13.054 3.967 0 0 3.973 17 21 34 3.973z" class="acls-1"/></symbol><symbol preserveAspectRatio="xMidYMid" viewBox="0 0 34 21" id="svg-login-arrow-top" xmlns="http://www.w3.org/2000/svg"><defs><style>.bcls-1{fill:#fff;fill-rule:evenodd}</style></defs><path d="M0 17.027L3.967 21 17 7.946 30.033 21 34 17.027 17 0 0 17.027z" class="bcls-1"/></symbol><symbol preserveAspectRatio="xMidYMid" viewBox="0 0 29.031 22" id="svg-login-check" xmlns="http://www.w3.org/2000/svg"><defs><style>.ccls-1{fill:#fff;fill-rule:evenodd}</style></defs><path d="M.335 12.1A1.176 1.176 0 0 1 0 11.33c0-.22.111-.55.335-.77l1.561-1.541a1.09 1.09 0 0 1 1.562 0l.111.11 6.135 6.491c.223.22.557.22.78 0L25.43.329h.112a1.088 1.088 0 0 1 1.561 0l1.562 1.54c.446.44.446 1.1 0 1.54L10.819 21.67c-.223.22-.446.33-.781.33-.334 0-.557-.11-.78-.33l-8.7-9.24-.223-.33z" class="ccls-1"/></symbol><symbol preserveAspectRatio="xMidYMid" viewBox="0 0 7 12" id="svg-main-breadcrumbs-arrow" xmlns="http://www.w3.org/2000/svg"><defs><style>.dcls-1{fill:#999;fill-rule:evenodd}</style></defs><path d="M1.324 0L0 1.4 4.351 6 0 10.6 1.324 12 7 6 1.324 0z" class="dcls-1"/></symbol><symbol preserveAspectRatio="xMidYMid" viewBox="0 0 44 32" id="svg-main-info" xmlns="http://www.w3.org/2000/svg"><defs><style>.ecls-1{fill:#fff;fill-rule:evenodd}</style></defs><path d="M41.106 29.011H30.038v1.762c0 .498-.293.943-.745 1.133a1.197 1.197 0 0 1-1.316-.266l-2.588-2.629h-4.858c-1.596 0-2.894-1.318-2.894-2.938v-.092c-.506.183-1.027.337-1.562.459v2.312a1.44 1.44 0 0 1-.878 1.336 1.404 1.404 0 0 1-1.552-.313l-3.252-3.303c-3.092-.677-5.838-2.463-7.752-5.046-1.997-2.696-2.91-6.048-2.57-9.439C.693 5.776 5.576.77 11.682.084c3.807-.427 7.461.754 10.29 3.327a13.442 13.442 0 0 1 3.879 6.288h15.255c1.596 0 2.894 1.319 2.894 2.939v13.435c0 1.62-1.298 2.938-2.894 2.938zM21.053 4.454c-2.193-1.995-4.942-3.056-7.855-3.056-.452 0-.907.026-1.365.077-2.633.296-5.13 1.532-7.03 3.48a12.042 12.042 0 0 0-3.361 7.174c-.305 3.039.512 6.042 2.3 8.455 1.753 2.366 4.284 3.985 7.127 4.559a.69.69 0 0 1 .352.191l3.398 3.451c.012.012.022.022.05.011.029-.012.029-.027.029-.044v-2.885c0-.339.239-.629.568-.689 5.632-1.02 9.72-5.979 9.72-11.79 0-3.405-1.434-6.661-3.933-8.934zm21.569 8.184a1.53 1.53 0 0 0-1.516-1.539H26.168c.128.751.195 1.516.195 2.289 0 5.207-2.938 9.801-7.348 12.002v.683c0 .849.68 1.539 1.516 1.539h5.144c.182 0 .358.074.487.205l2.498 2.537v-2.042c0-.387.308-.7.689-.7h11.757a1.53 1.53 0 0 0 1.516-1.539V12.638zM31.306 23.582a.682.682 0 0 1-.975 0l-3.672-3.73a.708.708 0 0 1 0-.99.682.682 0 0 1 .974 0l3.185 3.236 6.862-6.969a.682.682 0 0 1 .974 0 .707.707 0 0 1 0 .989l-7.348 7.464zm-16.869-8.188a.79.79 0 0 0-.566.756v.223c0 .387-.308.7-.689.7a.695.695 0 0 1-.689-.7v-.223c0-.972.622-1.814 1.548-2.096 1.252-.382 2.126-1.576 2.127-2.905 0-.789-.317-1.545-.891-2.128-.574-.583-1.318-.904-2.095-.904-1.646 0-2.985 1.36-2.985 3.032a.694.694 0 0 1-.689.699.694.694 0 0 1-.689-.699c0-2.444 1.957-4.432 4.363-4.432 1.145 0 2.235.467 3.069 1.315a4.422 4.422 0 0 1 1.294 3.117c0 1.942-1.278 3.688-3.108 4.245zm-1.255 3.264h.001c.38 0 .689.314.689.7v.001c0 .387-.309.7-.689.7h-.001a.695.695 0 0 1-.69-.7v-.001c0-.386.309-.7.69-.7z" class="ecls-1"/></symbol><symbol viewBox="0 0 79.536 79.536" id="svg-main-instructors" xmlns="http://www.w3.org/2000/svg"><path d="M15.532 56.706c-3.977 0-7.213-3.242-7.213-7.197a7.217 7.217 0 0 1 7.213-7.224 7.222 7.222 0 0 1 7.226 7.224c0 3.954-3.239 7.197-7.226 7.197zm0-11.102c-2.128 0-3.876 1.75-3.876 3.883 0 2.129 1.748 3.879 3.876 3.879a3.894 3.894 0 0 0 3.886-3.879 3.895 3.895 0 0 0-3.886-3.883zm48.605 11.102c-3.987 0-7.219-3.242-7.219-7.197a7.216 7.216 0 0 1 7.219-7.224c3.977 0 7.208 3.226 7.208 7.224 0 3.954-3.232 7.197-7.208 7.197zm0-11.102c-2.144 0-3.895 1.75-3.895 3.883 0 2.129 1.751 3.879 3.895 3.879a3.894 3.894 0 0 0 3.884-3.879 3.895 3.895 0 0 0-3.884-3.883zm14.001-1.513c0-7.011-4.365-7.842-4.365-7.842-6.426-.912-17.496-1.38-17.496-1.38-1.016-1.766-5.707-12.039-8.44-12.039H23.862c-3.472 0-9.167 10.024-10.413 12.285 0 0-4.36.758-6.416 1.219-1.142.265-4.301.324-4.301 9.155H0v3.997h6.654c0-4.908 3.982-8.885 8.878-8.885a8.88 8.88 0 0 1 8.886 8.885h30.827a8.879 8.879 0 0 1 8.892-8.885c4.898 0 8.875 3.977 8.875 8.885h6.524V44.09h-1.398zm-42.549-9.9H21.751c1.872-5.831 5.339-9.994 6.801-9.994h7.037v9.994zm2.579 0v-9.994h8.974c1.854 0 5.893 8.461 7.032 10.625l-16.006-.631z"/></symbol><symbol preserveAspectRatio="xMidYMid" viewBox="0 0 30.656 40" id="svg-main-lessons" xmlns="http://www.w3.org/2000/svg"><defs><style>.gcls-1{fill:#fff;fill-rule:evenodd}</style></defs><path d="M6.667 40H0V0h30.667v40h-24zM5.333 1.333h-4v37.334h4V1.333zm24 0H6.667v37.334h22.666V1.333zM26 16H10V6.667h16V16zm-1.333-8H11.333v6.667h13.334V8zm-2 2.667h-9.334V9.333h9.334v1.334zm0 2.666h-9.334V12h9.334v1.333z" class="gcls-1"/></symbol><symbol preserveAspectRatio="xMidYMid" viewBox="0 0 53 55" id="svg-main-logout" xmlns="http://www.w3.org/2000/svg"><defs><style>.hcls-1{fill:#fff;fill-rule:evenodd}</style></defs><path d="M52.899 24.382a.988.988 0 0 1-.216.326L40.689 36.707a.997.997 0 0 1-1.414 0 1 1 0 0 1 0-1.414L49.564 25H27.987a.999.999 0 1 1 0-2h21.577L39.275 12.707a1 1 0 0 1 1.414-1.414l11.994 11.998a1.001 1.001 0 0 1 .216 1.091zM34.984 19a.999.999 0 0 1-.999-1V2H7.437l15.855 5.047a1 1 0 0 1 .697.953v38h9.996V30a.999.999 0 1 1 1.999 0v17a1 1 0 0 1-1 1H23.989v6a.999.999 0 0 1-1.301.954l-21.991-7c-.017-.006-.03-.018-.047-.024-.04-.015-.074-.036-.111-.056a.989.989 0 0 1-.283-.22.962.962 0 0 1-.132-.196c-.017-.035-.038-.066-.053-.103A1.007 1.007 0 0 1 0 47V1C0 .878.028.761.07.649l.021-.06C.137.489.199.398.275.316.291.299.309.285.326.269.354.244.378.215.409.192.434.174.465.174.491.158A.972.972 0 0 1 .75.05C.803.036.852.023.908.018.939.015.967 0 .999 0h33.985a1 1 0 0 1 1 1v17a1 1 0 0 1-1 1zM1.999 46.269l19.991 6.364V8.731L1.999 2.367v43.902z" class="hcls-1"/></symbol><symbol preserveAspectRatio="xMidYMid" viewBox="0 0 37 38" id="svg-main-pay" xmlns="http://www.w3.org/2000/svg"><defs><style>.icls-1{fill:#fff;fill-rule:evenodd}</style></defs><path d="M37 17.702h-1.793V9.315c0-2.011-1.609-3.646-3.587-3.646h-2.428l-2.486-4.544A2.146 2.146 0 0 0 24.825 0a2.13 2.13 0 0 0-1.045.276l-9.539 5.393H3.586C1.609 5.669 0 7.304 0 9.315v25.039C0 36.364 1.609 38 3.586 38H31.62c1.978 0 3.587-1.636 3.587-3.646V27H37v-9.298zM31.62 7.127c1.105 0 2.007.853 2.128 1.945h-2.695L29.99 7.127h1.63zM24.477 1.55a.726.726 0 0 1 .975.283l3.96 7.238H11.174L24.477 1.55zm9.295 32.804c0 1.206-.965 2.187-2.152 2.187H3.586c-1.186 0-2.151-.981-2.151-2.187V9.315c0-1.206.965-2.188 2.151-2.188h8.076L8.221 9.072H4.035a.723.723 0 0 0-.717.73c0 .402.32.729.717.729H33.772v7.172h-5.245c-2.436 0-4.419 2.015-4.419 4.492v.314c0 2.476 1.983 4.492 4.419 4.492h5.245v7.353zm1.793-8.812H28.527c-1.646 0-2.984-1.361-2.984-3.034v-.314c0-1.673 1.338-3.034 2.984-3.034H35.565v6.382zm-4.841-3.131c0 .89-.709 1.61-1.584 1.61-.875 0-1.584-.72-1.584-1.61 0-.89.709-1.61 1.584-1.61.875 0 1.584.721 1.584 1.61z" class="icls-1"/></symbol><symbol preserveAspectRatio="xMidYMid" viewBox="0 0 28 22" id="svg-main-pay-check" xmlns="http://www.w3.org/2000/svg"><defs><style>.jcls-1{fill:#000;fill-rule:evenodd}</style></defs><path d="M.323 12.1A1.203 1.203 0 0 1 0 11.33c0-.22.108-.551.323-.771l1.508-1.54c.43-.44 1.077-.44 1.507 0l.108.11 5.923 6.491c.216.22.538.22.754 0L24.553.329h.108a1.026 1.026 0 0 1 1.508 0l1.508 1.54c.43.44.43 1.1 0 1.54L10.446 21.67c-.215.22-.431.33-.754.33s-.538-.11-.754-.33l-8.4-9.24-.215-.33z" class="jcls-1"/></symbol><symbol preserveAspectRatio="xMidYMid" viewBox="0 0 35 33" id="svg-main-rating" xmlns="http://www.w3.org/2000/svg"><defs><style>.kcls-1{fill:#fff;fill-rule:evenodd}</style></defs><path d="M32.341 10.487l-8.537-.607a.46.46 0 0 1-.4-.29l-3.252-7.839C19.703.671 18.69 0 17.506 0s-2.19.671-2.646 1.758L11.6 9.604a.478.478 0 0 1-.399.29l-8.524.607a2.816 2.816 0 0 0-2.518 1.914c-.385 1.115-.064 2.288.849 3.057l6.598 5.396a.468.468 0 0 1 .157.466l-2.012 8.149a2.732 2.732 0 0 0 .45 2.408A2.854 2.854 0 0 0 8.447 33c.543 0 1.07-.162 1.505-.452l7.211-4.442a.475.475 0 0 1 .493 0l7.282 4.428a2.74 2.74 0 0 0 1.519.466c.82 0 1.633-.388 2.161-1.045.549-.678.749-1.561.549-2.444l-2.018-8.17a.471.471 0 0 1 .157-.473l6.697-5.41a2.767 2.767 0 0 0 .842-3.05 2.809 2.809 0 0 0-2.504-1.921zm.55 3.637l-6.684 5.402a2.187 2.187 0 0 0-.748 2.224l2.018 8.157c.107.48-.086.812-.214.967-.2.248-.499.403-.799.403a1 1 0 0 1-.57-.191l-7.311-4.449a2.237 2.237 0 0 0-2.333.007L9.011 31.1c-.464.304-1.084.17-1.412-.254-.136-.176-.278-.48-.15-.925l2.018-8.178c.2-.812-.092-1.68-.741-2.21l-6.584-5.388a1.064 1.064 0 0 1-.321-1.179c.057-.163.293-.707.977-.742l8.538-.607a2.208 2.208 0 0 0 1.89-1.356l3.26-7.846c.264-.635.856-.685 1.027-.685.171 0 .763.05 1.027.685l3.259 7.846a2.21 2.21 0 0 0 1.891 1.356l8.551.614c.671.035.906.579.963.742.043.148.186.72-.313 1.151z" class="kcls-1"/></symbol><symbol preserveAspectRatio="xMidYMid" viewBox="0 0 29.94 29" id="svg-main-rating-star" xmlns="http://www.w3.org/2000/svg"><defs><style>.lcls-1{fill:#9d9d9d;fill-rule:evenodd}</style></defs><path d="M29.308 13.137c.59-.581.798-1.433.544-2.225a2.142 2.142 0 0 0-1.736-1.477L20.857 8.37a.947.947 0 0 1-.714-.524l-3.246-6.639a2.133 2.133 0 0 0-1.928-1.209c-.823 0-1.563.463-1.927 1.209l-3.246 6.64a.951.951 0 0 1-.715.524L1.822 9.436a2.14 2.14 0 0 0-1.736 1.477 2.17 2.17 0 0 0 .544 2.224l5.252 5.168a.964.964 0 0 1 .274.848l-1.239 7.298c-.11.642.057 1.267.468 1.759a2.16 2.16 0 0 0 2.651.528l6.491-3.445a.961.961 0 0 1 .884 0l6.492 3.445c.316.168.653.253 1 .253.635 0 1.236-.285 1.65-.781a2.137 2.137 0 0 0 .469-1.759l-1.24-7.298a.964.964 0 0 1 .274-.848l5.252-5.168z" class="lcls-1"/></symbol><symbol preserveAspectRatio="xMidYMid" viewBox="0 0 39 38" id="svg-main-record" xmlns="http://www.w3.org/2000/svg"><defs><style>.mcls-1{fill:#000;fill-rule:evenodd}</style></defs><path d="M38.39 25.17L27.671 35.948l-5.417 1.486-.362.364a.695.695 0 0 1-.979.003l-.014.004.004-.014a.702.702 0 0 1 .004-.984l.362-.364 1.477-5.447 10.718-10.779a2.074 2.074 0 0 1 2.94 0l1.985 1.996c.811.815.811 2.142.001 2.957zM22.884 35.809l3.084-.846-2.243-2.255-.841 3.101zm1.47-4.449l2.955 2.971 7.134-7.173-2.955-2.971-7.134 7.173zm13.051-8.156l-1.985-1.996a.685.685 0 0 0-.971.001l-1.977 1.988 2.955 2.971 1.977-1.989a.693.693 0 0 0 .001-.975zm-23 3.159l-4.776 5.602a.69.69 0 0 1-.947.105l-3.183-2.402a.7.7 0 0 1-.14-.979.694.694 0 0 1 .975-.14l2.661 2.007 4.352-5.103a.695.695 0 0 1 .983-.077.703.703 0 0 1 .075.987zM9.1 11.901a.687.687 0 0 1-.418-.14L5.499 9.36a.702.702 0 0 1-.14-.98.695.695 0 0 1 .975-.14l2.662 2.007 4.352-5.104a.693.693 0 0 1 .982-.075.701.701 0 0 1 .075.986l-4.776 5.602a.69.69 0 0 1-.529.245zm5.305 3.957l-4.776 5.603a.69.69 0 0 1-.947.105l-3.183-2.402a.7.7 0 0 1-.14-.979.694.694 0 0 1 .975-.14l2.662 2.007 4.352-5.104a.692.692 0 0 1 .982-.076.702.702 0 0 1 .075.986zm22.504 1.646a.698.698 0 0 1-.696-.7V8.523c0-3.929-3.18-7.126-7.088-7.126H8.477c-3.908 0-7.088 3.197-7.088 7.126v20.764c0 3.929 3.18 7.126 7.088 7.126h8.931c.385 0 .697.313.697.7 0 .387-.312.7-.697.7H8.477c-4.676 0-8.48-3.825-8.48-8.527V8.523c0-4.702 3.804-8.526 8.48-8.527h20.648c4.676 0 8.481 3.825 8.481 8.527v8.281c0 .387-.313.7-.697.7zm-5.572-7.703H18.801a.697.697 0 0 1-.696-.7c0-.387.311-.7.696-.7h12.536c.385 0 .697.313.697.7 0 .387-.312.7-.697.7zm-12.536 8.404h12.536c.385 0 .697.313.697.7a.7.7 0 0 1-.697.701H18.801a.698.698 0 0 1-.696-.701c0-.387.311-.7.696-.7z" class="mcls-1"/></symbol><symbol viewBox="0 0 91 91" id="svg-main-students" xmlns="http://www.w3.org/2000/svg"><path d="M66 67.272V55.337c0-4.039-2.445-7.779-6.508-10.299a16.807 16.807 0 0 0 2.895-9.453c0-9.293-7.518-16.854-16.758-16.854-9.236 0-16.75 7.561-16.75 16.854 0 3.547 1.1 6.836 2.968 9.555-3.961 2.52-6.345 6.223-6.345 10.197v11.936h3.4V55.337c0-2.914 1.943-5.688 5.165-7.588a16.69 16.69 0 0 0 8.006 4.299l-3.484 16.99 7.163 5.73 7.163-5.73-3.546-17.039a16.698 16.698 0 0 0 7.918-4.332c3.313 1.9 5.313 4.703 5.313 7.67v11.936H66zm-20.248 3.143l-3.414-2.73 2.865-13.973h1.049l2.909 13.975-3.409 2.728zm-.123-21.377c-7.361 0-13.351-6.035-13.351-13.453 0-7.42 5.989-13.453 13.351-13.453 7.365 0 13.357 6.033 13.357 13.453 0 7.418-5.992 13.453-13.357 13.453z"/></symbol><symbol preserveAspectRatio="xMidYMid" viewBox="0 0 38.969 27.969" id="svg-main-video" xmlns="http://www.w3.org/2000/svg"><defs><style>.ocls-1{fill:#fff;fill-rule:evenodd}</style></defs><path d="M20.403 27.969c-4.435 0-9.263-.141-14.35-.416-3.005-.165-5.336-2.49-5.667-5.654a75.638 75.638 0 0 1 0-15.863C.717 2.898 3.045.573 6.047.384c8.772-.554 17.799-.554 26.842 0 3.037.185 5.313 2.455 5.664 5.649.554 5.058.555 10.394.001 15.863-.32 3.163-2.593 5.436-5.657 5.656-3.855.276-8.059.417-12.494.417zM19.366 1.471c-4.421 0-8.871.139-13.226.414-2.295.144-4.008 1.877-4.265 4.31a74.247 74.247 0 0 0 0 15.546c.257 2.453 1.968 4.185 4.259 4.311 5.059.274 9.861.414 14.268.414 4.4 0 8.567-.139 12.387-.413 2.312-.167 4.03-1.898 4.273-4.309.544-5.363.544-10.594.001-15.546-.268-2.441-1.982-4.174-4.265-4.313a220.78 220.78 0 0 0-13.432-.414zm-3.712 7.173V18.96l9.872-5.123-9.872-5.193z" class="ocls-1"/></symbol></svg>